<svg xmlns="http://www.w3.org/2000/svg" width="1480" height="1020" viewBox="0 0 1480 1020"><defs><filter id="planShadow" x="-20%" y="-20%" width="140%" height="160%"><feDropShadow dx="0" dy="18" stdDeviation="18" flood-color="#000000" flood-opacity="0.14"/></filter><filter id="roomShadow" x="-20%" y="-20%" width="160%" height="160%"><feDropShadow dx="0" dy="6" stdDeviation="5" flood-color="#000000" flood-opacity="0.08"/></filter><pattern id="grid" width="36" height="36" patternUnits="userSpaceOnUse"><path d="M 36 0 L 0 0 0 36" fill="none" stroke="#ececec" stroke-width="1"/></pattern></defs><rect width="100%" height="100%" fill="#dfe4ea"/><rect x="18" y="18" width="1444" height="984" rx="28" fill="#f6f3ee"/><rect x="34" y="34" width="1412" height="952" rx="24" fill="#fbfaf8" stroke="#d8d2cb" stroke-width="1.5"/><text x="58" y="62" font-family="Arial, Helvetica, sans-serif" font-size="34" font-weight="700" fill="#171717">Residential Floor Plan</text><text x="58" y="94" font-family="Arial, Helvetica, sans-serif" font-size="17" fill="#444444">Level: Ground Floor</text><text x="58" y="118" font-family="Arial, Helvetica, sans-serif" font-size="13" letter-spacing="1.2" fill="#7a6f63">MANUAL 2D LAYOUT</text><text x="1120" y="62" font-family="Arial, Helvetica, sans-serif" font-size="18" fill="#333333">Footprint: 40 ft x 50 ft</text><g transform="translate(1376,84)"><circle cx="0" cy="0" r="28" fill="#fcfcfc" stroke="#202020" stroke-width="2.5"/><path d="M 0 -18 L 9 9 L 0 4 L -9 9 Z" fill="#202020"/><text x="0" y="48" text-anchor="middle" font-family="Arial, Helvetica, sans-serif" font-size="14" font-weight="700" fill="#202020">N</text></g><rect x="46" y="152" width="1388" height="822" rx="22" fill="#fefefe" stroke="#191919" stroke-width="5" filter="url(#planShadow)"/><g transform="translate(60,166)"><rect x="0" y="0" width="1360" height="794" rx="16" fill="url(#grid)"/><g transform="translate(362.4,0.0)"><rect x="0" y="0" width="635.2" height="794.0" fill="#ffffff" stroke="#151515" stroke-width="10" filter="url(#roomShadow)"/><rect x="12" y="12" width="611.2" height="770.0" fill="none" stroke="#bbb2a6" stroke-width="1.2" stroke-dasharray="10 10"/><line x1="0" y1="-28" x2="635.2" y2="-28" stroke="#444444" stroke-width="2"/><line x1="0" y1="-38" x2="0" y2="-18" stroke="#444444" stroke-width="2"/><line x1="635.2" y1="-38" x2="635.2" y2="-18" stroke="#444444" stroke-width="2"/><text x="317.6" y="-34" text-anchor="middle" font-family="Arial, Helvetica, sans-serif" font-size="16" fill="#333333">40 ft</text><line x1="-28" y1="0" x2="-28" y2="794.0" stroke="#444444" stroke-width="2"/><line x1="-38" y1="0" x2="-18" y2="0" stroke="#444444" stroke-width="2"/><line x1="-38" y1="794.0" x2="-18" y2="794.0" stroke="#444444" stroke-width="2"/><text x="-40" y="397.0" text-anchor="middle" font-family="Arial, Helvetica, sans-serif" font-size="16" fill="#333333" transform="rotate(-90 -40 397.0)">50 ft</text><rect x="0.0" y="349.5" width="449.2" height="79.4" fill="#f7f3ee" stroke="#98918a" stroke-width="2" stroke-dasharray="8 8"/><text x="224.6" y="395.2" text-anchor="middle" font-family="Arial, Helvetica, sans-serif" font-size="18" letter-spacing="1.2" fill="#7a736c">PASSAGE</text><rect x="0.0" y="0.0" width="449.2" height="333.5" fill="#f1e8dc" stroke="#191919" stroke-width="6"/><rect x="10.0" y="10.0" width="429.2" height="313.5" fill="none" stroke="#ffffff" stroke-width="1.2" opacity="0.8"/><rect x="181.6" y="-4.0" width="86.0" height="8" rx="2" fill="#ffffff" stroke="#8a8a8a" stroke-width="1.3"/><rect x="-4.0" y="126.7" width="8" height="80.0" rx="2" fill="#ffffff" stroke="#8a8a8a" stroke-width="1.3"/><rect x="18.0" y="18.0" width="130.0" height="46.0" rx="10" fill="none" stroke="#636363" stroke-width="2.3"/><line x1="44.0" y1="25.0" x2="44.0" y2="57.0" stroke="#787878" stroke-width="1.7"/><line x1="122.0" y1="25.0" x2="122.0" y2="57.0" stroke="#787878" stroke-width="1.7"/><circle cx="413.2" cy="299.5" r="17" fill="none" stroke="#636363" stroke-width="2.1"/><text x="224.6" y="154.7" text-anchor="middle" font-family="Arial, Helvetica, sans-serif" font-size="20" font-weight="700" fill="#111111">Living Room</text><text x="224.6" y="178.7" text-anchor="middle" font-family="Arial, Helvetica, sans-serif" font-size="15" font-weight="500" fill="#111111">12 x 15 ft</text><line x1="18.0" y1="309.5" x2="431.2" y2="309.5" stroke="#7a756c" stroke-width="1.8" stroke-dasharray="7 7"/><text x="224.6" y="303.5" text-anchor="middle" font-family="Arial, Helvetica, sans-serif" font-size="14" fill="#444444">12 ft</text><rect x="0.0" y="444.9" width="216.6" height="349.1" fill="#e7eef7" stroke="#191919" stroke-width="6"/><rect x="10.0" y="454.9" width="196.6" height="329.1" fill="none" stroke="#ffffff" stroke-width="1.2" opacity="0.8"/><rect x="82.3" y="440.9" width="52.0" height="8" rx="2" fill="#ffffff" stroke="#8a8a8a" stroke-width="1.3"/><rect x="-4.0" y="577.5" width="8" height="83.8" rx="2" fill="#ffffff" stroke="#8a8a8a" stroke-width="1.3"/><rect x="18.0" y="462.9" width="91.0" height="118.7" rx="18" fill="none" stroke="#656565" stroke-width="2.5"/><rect x="26.0" y="470.9" width="23.7" height="30.9" rx="7" fill="none" stroke="#7a7a7a" stroke-width="1.8"/><rect x="77.3" y="470.9" width="23.7" height="30.9" rx="7" fill="none" stroke="#7a7a7a" stroke-width="1.8"/><circle cx="186.6" cy="474.9" r="16" fill="none" stroke="#606060" stroke-width="2.1"/><text x="108.3" y="607.4" text-anchor="middle" font-family="Arial, Helvetica, sans-serif" font-size="20" font-weight="700" fill="#111111">Bedroom</text><text x="108.3" y="631.4" text-anchor="middle" font-family="Arial, Helvetica, sans-serif" font-size="15" font-weight="500" fill="#111111">12 x 12 ft</text><line x1="18.0" y1="770.0" x2="198.6" y2="770.0" stroke="#7a756c" stroke-width="1.8" stroke-dasharray="7 7"/><text x="108.3" y="764.0" text-anchor="middle" font-family="Arial, Helvetica, sans-serif" font-size="14" fill="#444444">12 ft</text><rect x="232.6" y="444.9" width="216.6" height="349.1" fill="#e7eef7" stroke="#191919" stroke-width="6"/><rect x="242.6" y="454.9" width="196.6" height="329.1" fill="none" stroke="#ffffff" stroke-width="1.2" opacity="0.8"/><rect x="314.9" y="440.9" width="52.0" height="8" rx="2" fill="#ffffff" stroke="#8a8a8a" stroke-width="1.3"/><rect x="228.6" y="577.5" width="8" height="83.8" rx="2" fill="#ffffff" stroke="#8a8a8a" stroke-width="1.3"/><rect x="250.6" y="462.9" width="91.0" height="118.7" rx="18" fill="none" stroke="#656565" stroke-width="2.5"/><rect x="258.6" y="470.9" width="23.7" height="30.9" rx="7" fill="none" stroke="#7a7a7a" stroke-width="1.8"/><rect x="309.9" y="470.9" width="23.7" height="30.9" rx="7" fill="none" stroke="#7a7a7a" stroke-width="1.8"/><circle cx="419.2" cy="474.9" r="16" fill="none" stroke="#606060" stroke-width="2.1"/><text x="340.9" y="607.4" text-anchor="middle" font-family="Arial, Helvetica, sans-serif" font-size="20" font-weight="700" fill="#111111">bedroom2</text><text x="340.9" y="631.4" text-anchor="middle" font-family="Arial, Helvetica, sans-serif" font-size="15" font-weight="500" fill="#111111">12 x 12 ft</text><line x1="250.6" y1="770.0" x2="431.2" y2="770.0" stroke="#7a756c" stroke-width="1.8" stroke-dasharray="7 7"/><text x="340.9" y="764.0" text-anchor="middle" font-family="Arial, Helvetica, sans-serif" font-size="14" fill="#444444">12 ft</text><rect x="465.2" y="0.0" width="170.0" height="544.6" fill="#ebe9f3" stroke="#191919" stroke-width="6"/><rect x="475.2" y="10.0" width="150.0" height="524.6" fill="none" stroke="#ffffff" stroke-width="1.2" opacity="0.8"/><rect x="529.8" y="-4.0" width="40.8" height="8" rx="2" fill="#ffffff" stroke="#8a8a8a" stroke-width="1.3"/><rect x="461.2" y="229.3" width="8" height="86.0" rx="2" fill="#ffffff" stroke="#8a8a8a" stroke-width="1.3"/><rect x="586.6" y="18.0" width="30.6" height="154.0" fill="none" stroke="#606060" stroke-width="2.3"/><line x1="586.6" y1="56.5" x2="617.2" y2="56.5" stroke="#767676" stroke-width="1.5"/><line x1="586.6" y1="95.0" x2="617.2" y2="95.0" stroke="#767676" stroke-width="1.5"/><line x1="586.6" y1="133.5" x2="617.2" y2="133.5" stroke="#767676" stroke-width="1.5"/><rect x="535.8" y="18.0" width="40.8" height="34" rx="6" fill="none" stroke="#606060" stroke-width="2"/><circle cx="556.2" cy="35.0" r="7" fill="none" stroke="#767676" stroke-width="1.5"/><text x="550.2" y="260.3" text-anchor="middle" font-family="Arial, Helvetica, sans-serif" font-size="20" font-weight="700" fill="#111111">kitchen</text><text x="550.2" y="284.3" text-anchor="middle" font-family="Arial, Helvetica, sans-serif" font-size="15" font-weight="500" fill="#111111">12 x 14 ft</text><line x1="483.2" y1="520.6" x2="617.2" y2="520.6" stroke="#7a756c" stroke-width="1.8" stroke-dasharray="7 7"/><text x="550.2" y="514.6" text-anchor="middle" font-family="Arial, Helvetica, sans-serif" font-size="14" fill="#444444">12 ft</text><rect x="465.2" y="560.6" width="170.0" height="233.4" fill="#ebe9f3" stroke="#191919" stroke-width="6"/><rect x="475.2" y="570.6" width="150.0" height="213.4" fill="none" stroke="#ffffff" stroke-width="1.2" opacity="0.8"/><rect x="529.8" y="556.6" width="40.8" height="8" rx="2" fill="#ffffff" stroke="#8a8a8a" stroke-width="1.3"/><rect x="461.2" y="649.3" width="8" height="56.0" rx="2" fill="#ffffff" stroke="#8a8a8a" stroke-width="1.3"/><rect x="562.8" y="578.6" width="54.4" height="40.0" rx="14" fill="none" stroke="#606060" stroke-width="2.1"/><circle cx="493.2" cy="588.6" r="15" fill="none" stroke="#606060" stroke-width="2.1"/><rect x="483.2" y="748.0" width="40" height="24" rx="10" fill="none" stroke="#606060" stroke-width="1.9"/><text x="550.2" y="665.3" text-anchor="middle" font-family="Arial, Helvetica, sans-serif" font-size="20" font-weight="700" fill="#111111">Bathroom</text><text x="550.2" y="689.3" text-anchor="middle" font-family="Arial, Helvetica, sans-serif" font-size="15" font-weight="500" fill="#111111">8 x 9 ft</text><line x1="483.2" y1="770.0" x2="617.2" y2="770.0" stroke="#7a756c" stroke-width="1.8" stroke-dasharray="7 7"/><text x="550.2" y="764.0" text-anchor="middle" font-family="Arial, Helvetica, sans-serif" font-size="14" fill="#444444">8 ft</text><rect x="279.5" y="789.0" width="76.2" height="10" fill="#ffffff"/><path d="M 279.5 794.0 A 76.2 76.2 0 0 1 355.7 717.8" fill="none" stroke="#191919" stroke-width="3"/><g transform="translate(0,816)"><rect x="0.0" y="0" width="45.0" height="14" fill="#202020" stroke="#202020" stroke-width="1"/><rect x="45.0" y="0" width="45.0" height="14" fill="#ffffff" stroke="#202020" stroke-width="1"/><rect x="90.0" y="0" width="45.0" height="14" fill="#202020" stroke="#202020" stroke-width="1"/><rect x="135.0" y="0" width="45.0" height="14" fill="#ffffff" stroke="#202020" stroke-width="1"/><text x="0" y="-8" font-family="Arial, Helvetica, sans-serif" font-size="12" fill="#333333">Scale</text><text x="180.0" y="30" text-anchor="end" font-family="Arial, Helvetica, sans-serif" font-size="12" fill="#333333">40 ft overall</text></g></g></g><g transform="translate(1116,916)"><rect x="0" y="0" width="288" height="64" rx="12" fill="#f3efe8" stroke="#b9b0a5" stroke-width="1.2"/><text x="16" y="24" font-family="Arial, Helvetica, sans-serif" font-size="13" font-weight="700" fill="#262626">DRAWING NOTES</text><text x="16" y="44" font-family="Arial, Helvetica, sans-serif" font-size="12" fill="#555555">Conceptual layout based on user-entered rooms and dimensions.</text></g></svg>