<svg xmlns="http://www.w3.org/2000/svg" width="1400" height="980" viewBox="0 0 1400 980"><rect width="100%" height="100%" fill="#ffffff"/><text x="60" y="52" font-family="Arial, Helvetica, sans-serif" font-size="34" font-weight="700" fill="#111111">2D Architectural Floor Plan</text><text x="60" y="86" font-family="Arial, Helvetica, sans-serif" font-size="18" fill="#333333">Level: Ground Floor</text><text x="980" y="52" font-family="Arial, Helvetica, sans-serif" font-size="18" fill="#333333">Footprint: 60 ft x 40 ft</text><rect x="60" y="130" width="1280" height="790" fill="#ffffff" stroke="#111111" stroke-width="10"/><g transform="translate(72,142)"><rect x="0" y="0" width="1256" height="766" fill="#ffffff" stroke="#111111" stroke-width="8"/><rect x="0.0" y="0.0" width="408.7" height="449.6" fill="#ffffff" stroke="#111111" stroke-width="6"/><text x="20.0" y="42.0" font-family="Arial, Helvetica, sans-serif" font-size="20" font-weight="700" fill="#111111">Bedroom</text><line x1="18.0" y1="425.6" x2="390.7" y2="425.6" stroke="#777777" stroke-width="2" stroke-dasharray="8 8"/><text x="204.3" y="419.6" text-anchor="middle" font-family="Arial, Helvetica, sans-serif" font-size="16" fill="#333333">12 ft</text><text x="394.7" y="224.8" text-anchor="end" font-family="Arial, Helvetica, sans-serif" font-size="16" fill="#333333" transform="rotate(-90 394.7 224.8)">12 ft</text><rect x="418.7" y="0.0" width="408.7" height="449.6" fill="#ffffff" stroke="#111111" stroke-width="6"/><text x="438.7" y="42.0" font-family="Arial, Helvetica, sans-serif" font-size="20" font-weight="700" fill="#111111">Living Room</text><line x1="436.7" y1="425.6" x2="809.3" y2="425.6" stroke="#777777" stroke-width="2" stroke-dasharray="8 8"/><text x="623.0" y="419.6" text-anchor="middle" font-family="Arial, Helvetica, sans-serif" font-size="16" fill="#333333">12 ft</text><text x="813.3" y="224.8" text-anchor="end" font-family="Arial, Helvetica, sans-serif" font-size="16" fill="#333333" transform="rotate(-90 813.3 224.8)">12 ft</text><rect x="837.3" y="0.0" width="418.7" height="449.6" fill="#ffffff" stroke="#111111" stroke-width="6"/><text x="857.3" y="42.0" font-family="Arial, Helvetica, sans-serif" font-size="20" font-weight="700" fill="#111111">Bathroom</text><line x1="855.3" y1="425.6" x2="1238.0" y2="425.6" stroke="#777777" stroke-width="2" stroke-dasharray="8 8"/><text x="1046.7" y="419.6" text-anchor="middle" font-family="Arial, Helvetica, sans-serif" font-size="16" fill="#333333">12 ft</text><text x="1242.0" y="224.8" text-anchor="end" font-family="Arial, Helvetica, sans-serif" font-size="16" fill="#333333" transform="rotate(-90 1242.0 224.8)">12 ft</text><rect x="0.0" y="459.6" width="618.0" height="306.4" fill="#ffffff" stroke="#111111" stroke-width="6"/><text x="20.0" y="501.6" font-family="Arial, Helvetica, sans-serif" font-size="20" font-weight="700" fill="#111111">Bedroom</text><line x1="18.0" y1="742.0" x2="600.0" y2="742.0" stroke="#777777" stroke-width="2" stroke-dasharray="8 8"/><text x="309.0" y="736.0" text-anchor="middle" font-family="Arial, Helvetica, sans-serif" font-size="16" fill="#333333">12 ft</text><text x="604.0" y="612.8" text-anchor="end" font-family="Arial, Helvetica, sans-serif" font-size="16" fill="#333333" transform="rotate(-90 604.0 612.8)">12 ft</text><rect x="628.0" y="459.6" width="628.0" height="306.4" fill="#ffffff" stroke="#111111" stroke-width="6"/><text x="648.0" y="501.6" font-family="Arial, Helvetica, sans-serif" font-size="20" font-weight="700" fill="#111111">Kitchen</text><line x1="646.0" y1="742.0" x2="1238.0" y2="742.0" stroke="#777777" stroke-width="2" stroke-dasharray="8 8"/><text x="942.0" y="736.0" text-anchor="middle" font-family="Arial, Helvetica, sans-serif" font-size="16" fill="#333333">12 ft</text><text x="1242.0" y="612.8" text-anchor="end" font-family="Arial, Helvetica, sans-serif" font-size="16" fill="#333333" transform="rotate(-90 1242.0 612.8)">12 ft</text></g></svg>