<svg xmlns="http://www.w3.org/2000/svg" width="1400" height="980" viewBox="0 0 1400 980"><defs><filter id="planShadow" x="-20%" y="-20%" width="140%" height="160%"><feDropShadow dx="0" dy="12" stdDeviation="10" flood-color="#000000" flood-opacity="0.14"/></filter><filter id="roomShadow" x="-20%" y="-20%" width="160%" height="160%"><feDropShadow dx="0" dy="7" stdDeviation="6" flood-color="#000000" flood-opacity="0.10"/></filter></defs><rect width="100%" height="100%" fill="#ececec"/><rect x="24" y="24" width="1352" height="932" rx="26" fill="#f2f2f2"/><text x="60" y="52" font-family="Arial, Helvetica, sans-serif" font-size="34" font-weight="700" fill="#111111">2D Architectural Floor Plan</text><text x="60" y="86" font-family="Arial, Helvetica, sans-serif" font-size="18" fill="#333333">Level: Ground Floor</text><text x="980" y="52" font-family="Arial, Helvetica, sans-serif" font-size="18" fill="#333333">Footprint: 60 ft x 40 ft</text><rect x="60" y="130" width="1280" height="790" rx="10" fill="#fafafa" stroke="#111111" stroke-width="10" filter="url(#planShadow)"/><g transform="translate(72,142)"><rect x="0" y="0" width="1256" height="766" fill="#fdfdfd" stroke="#111111" stroke-width="8"/><g transform="translate(53.5,0.0)"><rect x="0" y="0" width="1149.0" height="766.0" fill="#fcfcfc" stroke="#111111" stroke-width="8" filter="url(#roomShadow)"/><line x1="0" y1="-26" x2="1149.0" y2="-26" stroke="#444444" stroke-width="2"/><line x1="0" y1="-36" x2="0" y2="-16" stroke="#444444" stroke-width="2"/><line x1="1149.0" y1="-36" x2="1149.0" y2="-16" stroke="#444444" stroke-width="2"/><text x="574.5" y="-34" text-anchor="middle" font-family="Arial, Helvetica, sans-serif" font-size="16" fill="#333333">60 ft</text><line x1="-26" y1="0" x2="-26" y2="766.0" stroke="#444444" stroke-width="2"/><line x1="-36" y1="0" x2="-16" y2="0" stroke="#444444" stroke-width="2"/><line x1="-36" y1="766.0" x2="-16" y2="766.0" stroke="#444444" stroke-width="2"/><text x="-38" y="383.0" text-anchor="middle" font-family="Arial, Helvetica, sans-serif" font-size="16" fill="#333333" transform="rotate(-90 -38 383.0)">40 ft</text><rect x="0.0" y="0.0" width="1149.0" height="766.0" fill="#f8f8f8" stroke="#111111" stroke-width="6"/><rect x="529.5" y="-4.0" width="90.0" height="8" rx="2" fill="#f7f7f7" stroke="#7d7d7d" stroke-width="1.2"/><rect x="-4.0" y="338.0" width="8" height="90.0" rx="2" fill="#f7f7f7" stroke="#7d7d7d" stroke-width="1.2"/><text x="20.0" y="383.0" font-family="Arial, Helvetica, sans-serif" font-size="20" font-weight="700" fill="#111111">Room</text><text x="20.0" y="407.0" font-family="Arial, Helvetica, sans-serif" font-size="20" font-weight="400" fill="#111111">Room 1</text><text x="20.0" y="431.0" font-family="Arial, Helvetica, sans-serif" font-size="20" font-weight="400" fill="#111111">12 x 12 ft</text><line x1="18.0" y1="742.0" x2="1131.0" y2="742.0" stroke="#777777" stroke-width="2" stroke-dasharray="8 8"/><text x="574.5" y="736.0" text-anchor="middle" font-family="Arial, Helvetica, sans-serif" font-size="16" fill="#333333">12 ft</text><text x="1135.0" y="383.0" text-anchor="end" font-family="Arial, Helvetica, sans-serif" font-size="16" fill="#333333" transform="rotate(-90 1135.0 383.0)">12 ft</text><rect x="505.6" y="762.0" width="137.9" height="8" fill="#ffffff"/><path d="M 505.6 766.0 A 137.9 137.9 0 0 1 643.4 628.1" fill="none" stroke="#111111" stroke-width="3"/></g></g></svg>