<svg xmlns="http://www.w3.org/2000/svg" width="1480" height="1020" viewBox="0 0 1480 1020"><defs><filter id="planShadow" x="-20%" y="-20%" width="140%" height="160%"><feDropShadow dx="0" dy="18" stdDeviation="18" flood-color="#000000" flood-opacity="0.14"/></filter><filter id="roomShadow" x="-20%" y="-20%" width="160%" height="160%"><feDropShadow dx="0" dy="6" stdDeviation="5" flood-color="#000000" flood-opacity="0.08"/></filter><pattern id="grid" width="36" height="36" patternUnits="userSpaceOnUse"><path d="M 36 0 L 0 0 0 36" fill="none" stroke="#ececec" stroke-width="1"/></pattern></defs><rect width="100%" height="100%" fill="#dfe4ea"/><rect x="18" y="18" width="1444" height="984" rx="28" fill="#f6f3ee"/><rect x="34" y="34" width="1412" height="952" rx="24" fill="#fbfaf8" stroke="#d8d2cb" stroke-width="1.5"/><text x="58" y="62" font-family="Arial, Helvetica, sans-serif" font-size="34" font-weight="700" fill="#171717">Residential Floor Plan</text><text x="58" y="94" font-family="Arial, Helvetica, sans-serif" font-size="17" fill="#444444">Level: Ground Floor</text><text x="58" y="118" font-family="Arial, Helvetica, sans-serif" font-size="13" letter-spacing="1.2" fill="#7a6f63">MANUAL 2D LAYOUT</text><text x="1120" y="62" font-family="Arial, Helvetica, sans-serif" font-size="18" fill="#333333">Footprint: 60 ft x 40 ft</text><g transform="translate(1376,84)"><circle cx="0" cy="0" r="28" fill="#fcfcfc" stroke="#202020" stroke-width="2.5"/><path d="M 0 -18 L 9 9 L 0 4 L -9 9 Z" fill="#202020"/><text x="0" y="48" text-anchor="middle" font-family="Arial, Helvetica, sans-serif" font-size="14" font-weight="700" fill="#202020">N</text></g><rect x="46" y="152" width="1388" height="822" rx="22" fill="#fefefe" stroke="#191919" stroke-width="5" filter="url(#planShadow)"/><g transform="translate(60,166)"><rect x="0" y="0" width="1360" height="794" rx="16" fill="url(#grid)"/><g transform="translate(84.5,0.0)"><rect x="0" y="0" width="1191.0" height="794.0" fill="#ffffff" stroke="#151515" stroke-width="10" filter="url(#roomShadow)"/><rect x="12" y="12" width="1167.0" height="770.0" fill="none" stroke="#bbb2a6" stroke-width="1.2" stroke-dasharray="10 10"/><line x1="0" y1="-28" x2="1191.0" y2="-28" stroke="#444444" stroke-width="2"/><line x1="0" y1="-38" x2="0" y2="-18" stroke="#444444" stroke-width="2"/><line x1="1191.0" y1="-38" x2="1191.0" y2="-18" stroke="#444444" stroke-width="2"/><text x="595.5" y="-34" text-anchor="middle" font-family="Arial, Helvetica, sans-serif" font-size="16" fill="#333333">60 ft</text><line x1="-28" y1="0" x2="-28" y2="794.0" stroke="#444444" stroke-width="2"/><line x1="-38" y1="0" x2="-18" y2="0" stroke="#444444" stroke-width="2"/><line x1="-38" y1="794.0" x2="-18" y2="794.0" stroke="#444444" stroke-width="2"/><text x="-40" y="397.0" text-anchor="middle" font-family="Arial, Helvetica, sans-serif" font-size="16" fill="#333333" transform="rotate(-90 -40 397.0)">40 ft</text><rect x="0.0" y="349.5" width="1191.0" height="79.4" fill="#f7f3ee" stroke="#98918a" stroke-width="2" stroke-dasharray="8 8"/><text x="595.5" y="395.2" text-anchor="middle" font-family="Arial, Helvetica, sans-serif" font-size="18" letter-spacing="1.2" fill="#7a736c">PASSAGE</text><rect x="0.0" y="0.0" width="1191.0" height="333.5" fill="#edf0e8" stroke="#191919" stroke-width="6"/><rect x="10.0" y="10.0" width="1171.0" height="313.5" fill="none" stroke="#ffffff" stroke-width="1.2" opacity="0.8"/><rect x="552.5" y="-4.0" width="86.0" height="8" rx="2" fill="#ffffff" stroke="#8a8a8a" stroke-width="1.3"/><rect x="-4.0" y="126.7" width="8" height="80.0" rx="2" fill="#ffffff" stroke="#8a8a8a" stroke-width="1.3"/><text x="595.5" y="166.7" text-anchor="middle" font-family="Arial, Helvetica, sans-serif" font-size="20" font-weight="700" fill="#111111">Room 1</text><line x1="18.0" y1="309.5" x2="1173.0" y2="309.5" stroke="#7a756c" stroke-width="1.8" stroke-dasharray="7 7"/><text x="595.5" y="303.5" text-anchor="middle" font-family="Arial, Helvetica, sans-serif" font-size="14" fill="#444444">12 ft</text><rect x="0.0" y="444.9" width="285.8" height="349.1" fill="#edf0e8" stroke="#191919" stroke-width="6"/><rect x="10.0" y="454.9" width="265.8" height="329.1" fill="none" stroke="#ffffff" stroke-width="1.2" opacity="0.8"/><rect x="108.6" y="440.9" width="68.6" height="8" rx="2" fill="#ffffff" stroke="#8a8a8a" stroke-width="1.3"/><rect x="-4.0" y="577.5" width="8" height="83.8" rx="2" fill="#ffffff" stroke="#8a8a8a" stroke-width="1.3"/><text x="142.9" y="619.4" text-anchor="middle" font-family="Arial, Helvetica, sans-serif" font-size="20" font-weight="700" fill="#111111">Room 5</text><line x1="18.0" y1="770.0" x2="267.8" y2="770.0" stroke="#7a756c" stroke-width="1.8" stroke-dasharray="7 7"/><text x="142.9" y="764.0" text-anchor="middle" font-family="Arial, Helvetica, sans-serif" font-size="14" fill="#444444">12 ft</text><rect x="301.8" y="444.9" width="285.8" height="349.1" fill="#edf0e8" stroke="#191919" stroke-width="6"/><rect x="311.8" y="454.9" width="265.8" height="329.1" fill="none" stroke="#ffffff" stroke-width="1.2" opacity="0.8"/><rect x="410.3" y="440.9" width="68.6" height="8" rx="2" fill="#ffffff" stroke="#8a8a8a" stroke-width="1.3"/><rect x="297.8" y="577.5" width="8" height="83.8" rx="2" fill="#ffffff" stroke="#8a8a8a" stroke-width="1.3"/><text x="444.6" y="619.4" text-anchor="middle" font-family="Arial, Helvetica, sans-serif" font-size="20" font-weight="700" fill="#111111">Room 2</text><line x1="319.8" y1="770.0" x2="569.5" y2="770.0" stroke="#7a756c" stroke-width="1.8" stroke-dasharray="7 7"/><text x="444.6" y="764.0" text-anchor="middle" font-family="Arial, Helvetica, sans-serif" font-size="14" fill="#444444">12 ft</text><rect x="603.5" y="444.9" width="285.8" height="349.1" fill="#edf0e8" stroke="#191919" stroke-width="6"/><rect x="613.5" y="454.9" width="265.8" height="329.1" fill="none" stroke="#ffffff" stroke-width="1.2" opacity="0.8"/><rect x="712.1" y="440.9" width="68.6" height="8" rx="2" fill="#ffffff" stroke="#8a8a8a" stroke-width="1.3"/><rect x="599.5" y="577.5" width="8" height="83.8" rx="2" fill="#ffffff" stroke="#8a8a8a" stroke-width="1.3"/><text x="746.4" y="619.4" text-anchor="middle" font-family="Arial, Helvetica, sans-serif" font-size="20" font-weight="700" fill="#111111">Room 3</text><line x1="621.5" y1="770.0" x2="871.2" y2="770.0" stroke="#7a756c" stroke-width="1.8" stroke-dasharray="7 7"/><text x="746.4" y="764.0" text-anchor="middle" font-family="Arial, Helvetica, sans-serif" font-size="14" fill="#444444">12 ft</text><rect x="905.2" y="444.9" width="285.8" height="349.1" fill="#edf0e8" stroke="#191919" stroke-width="6"/><rect x="915.2" y="454.9" width="265.8" height="329.1" fill="none" stroke="#ffffff" stroke-width="1.2" opacity="0.8"/><rect x="1013.8" y="440.9" width="68.6" height="8" rx="2" fill="#ffffff" stroke="#8a8a8a" stroke-width="1.3"/><rect x="901.2" y="577.5" width="8" height="83.8" rx="2" fill="#ffffff" stroke="#8a8a8a" stroke-width="1.3"/><text x="1048.1" y="619.4" text-anchor="middle" font-family="Arial, Helvetica, sans-serif" font-size="20" font-weight="700" fill="#111111">Room 4</text><line x1="923.2" y1="770.0" x2="1173.0" y2="770.0" stroke="#7a756c" stroke-width="1.8" stroke-dasharray="7 7"/><text x="1048.1" y="764.0" text-anchor="middle" font-family="Arial, Helvetica, sans-serif" font-size="14" fill="#444444">12 ft</text><rect x="524.0" y="789.0" width="142.9" height="10" fill="#ffffff"/><path d="M 524.0 794.0 A 142.9 142.9 0 0 1 667.0 651.1" fill="none" stroke="#191919" stroke-width="3"/><g transform="translate(0,816)"><rect x="0.0" y="0" width="45.0" height="14" fill="#202020" stroke="#202020" stroke-width="1"/><rect x="45.0" y="0" width="45.0" height="14" fill="#ffffff" stroke="#202020" stroke-width="1"/><rect x="90.0" y="0" width="45.0" height="14" fill="#202020" stroke="#202020" stroke-width="1"/><rect x="135.0" y="0" width="45.0" height="14" fill="#ffffff" stroke="#202020" stroke-width="1"/><text x="0" y="-8" font-family="Arial, Helvetica, sans-serif" font-size="12" fill="#333333">Scale</text><text x="180.0" y="30" text-anchor="end" font-family="Arial, Helvetica, sans-serif" font-size="12" fill="#333333">60 ft overall</text></g></g></g><g transform="translate(1116,916)"><rect x="0" y="0" width="288" height="64" rx="12" fill="#f3efe8" stroke="#b9b0a5" stroke-width="1.2"/><text x="16" y="24" font-family="Arial, Helvetica, sans-serif" font-size="13" font-weight="700" fill="#262626">DRAWING NOTES</text><text x="16" y="44" font-family="Arial, Helvetica, sans-serif" font-size="12" fill="#555555">Conceptual layout based on user-entered rooms and dimensions.</text></g></svg>