<svg xmlns="http://www.w3.org/2000/svg" width="1200" height="900" viewBox="0 0 1200 900"><rect width="100%" height="100%" fill="#ffffff"/><text x="60" y="58" font-family="Arial, Helvetica, sans-serif" font-size="32" font-weight="700" fill="#111111">2D Floor Plan</text><text x="60" y="92" font-family="Arial, Helvetica, sans-serif" font-size="18" fill="#333333">Level: Ground Floor</text><rect x="60" y="120" width="1080" height="720" fill="#ffffff" stroke="#111111" stroke-width="8"/><rect x="60.0" y="120.0" width="349.3" height="352.0" fill="#ffffff" stroke="#111111" stroke-width="6"/><line x1="349.3" y1="266.0" x2="349.3" y2="326.0" stroke="#111111" stroke-width="4"/><path d="M 349.3 266.0 A 30 30 0 0 1 379.3 296.0" fill="none" stroke="#111111" stroke-width="3"/><text x="82.0" y="162.0" font-family="Arial, Helvetica, sans-serif" font-size="22" font-weight="700" fill="#111111">Bedroom</text><rect x="425.3" y="120.0" width="349.3" height="352.0" fill="#ffffff" stroke="#111111" stroke-width="6"/><line x1="714.7" y1="266.0" x2="714.7" y2="326.0" stroke="#111111" stroke-width="4"/><path d="M 714.7 266.0 A 30 30 0 0 1 744.7 296.0" fill="none" stroke="#111111" stroke-width="3"/><text x="447.3" y="162.0" font-family="Arial, Helvetica, sans-serif" font-size="22" font-weight="700" fill="#111111">Bedroom</text><rect x="790.7" y="120.0" width="349.3" height="352.0" fill="#ffffff" stroke="#111111" stroke-width="6"/><line x1="1080.0" y1="266.0" x2="1080.0" y2="326.0" stroke="#111111" stroke-width="4"/><path d="M 1080.0 266.0 A 30 30 0 0 1 1110.0 296.0" fill="none" stroke="#111111" stroke-width="3"/><text x="812.7" y="162.0" font-family="Arial, Helvetica, sans-serif" font-size="22" font-weight="700" fill="#111111">Living Room</text><rect x="60.0" y="488.0" width="349.3" height="352.0" fill="#ffffff" stroke="#111111" stroke-width="6"/><line x1="349.3" y1="634.0" x2="349.3" y2="694.0" stroke="#111111" stroke-width="4"/><path d="M 349.3 634.0 A 30 30 0 0 1 379.3 664.0" fill="none" stroke="#111111" stroke-width="3"/><text x="82.0" y="530.0" font-family="Arial, Helvetica, sans-serif" font-size="22" font-weight="700" fill="#111111">Kitchen</text><rect x="425.3" y="488.0" width="349.3" height="352.0" fill="#ffffff" stroke="#111111" stroke-width="6"/><line x1="714.7" y1="634.0" x2="714.7" y2="694.0" stroke="#111111" stroke-width="4"/><path d="M 714.7 634.0 A 30 30 0 0 1 744.7 664.0" fill="none" stroke="#111111" stroke-width="3"/><text x="447.3" y="530.0" font-family="Arial, Helvetica, sans-serif" font-size="22" font-weight="700" fill="#111111">Bathroom</text></svg>