<svg xmlns="http://www.w3.org/2000/svg" width="1400" height="980" viewBox="0 0 1400 980"><rect width="100%" height="100%" fill="#ffffff"/><text x="60" y="52" font-family="Arial, Helvetica, sans-serif" font-size="34" font-weight="700" fill="#111111">2D Architectural Floor Plan</text><text x="60" y="86" font-family="Arial, Helvetica, sans-serif" font-size="18" fill="#333333">Level: Ground Floor</text><text x="980" y="52" font-family="Arial, Helvetica, sans-serif" font-size="18" fill="#333333">Footprint: 60 ft x 40 ft</text><rect x="60" y="130" width="1280" height="790" fill="#ffffff" stroke="#111111" stroke-width="10"/><g transform="translate(72,142)"><rect x="0" y="0" width="1256" height="766" fill="#ffffff" stroke="#111111" stroke-width="8"/><g transform="translate(53.5,0.0)"><rect x="0" y="0" width="1149.0" height="766.0" fill="#ffffff" stroke="#111111" stroke-width="8"/><line x1="0" y1="-26" x2="1149.0" y2="-26" stroke="#444444" stroke-width="2"/><line x1="0" y1="-36" x2="0" y2="-16" stroke="#444444" stroke-width="2"/><line x1="1149.0" y1="-36" x2="1149.0" y2="-16" stroke="#444444" stroke-width="2"/><text x="574.5" y="-34" text-anchor="middle" font-family="Arial, Helvetica, sans-serif" font-size="16" fill="#333333">60 ft</text><line x1="-26" y1="0" x2="-26" y2="766.0" stroke="#444444" stroke-width="2"/><line x1="-36" y1="0" x2="-16" y2="0" stroke="#444444" stroke-width="2"/><line x1="-36" y1="766.0" x2="-16" y2="766.0" stroke="#444444" stroke-width="2"/><text x="-38" y="383.0" text-anchor="middle" font-family="Arial, Helvetica, sans-serif" font-size="16" fill="#333333" transform="rotate(-90 -38 383.0)">40 ft</text><rect x="0.0" y="0.0" width="1149.0" height="183.8" fill="#ffffff" stroke="#111111" stroke-width="6"/><text x="20.0" y="42.0" font-family="Arial, Helvetica, sans-serif" font-size="20" font-weight="700" fill="#111111">Living Room</text><line x1="18.0" y1="159.8" x2="1131.0" y2="159.8" stroke="#777777" stroke-width="2" stroke-dasharray="8 8"/><text x="574.5" y="153.8" text-anchor="middle" font-family="Arial, Helvetica, sans-serif" font-size="16" fill="#333333">12 ft</text><text x="1135.0" y="91.9" text-anchor="end" font-family="Arial, Helvetica, sans-serif" font-size="16" fill="#333333" transform="rotate(-90 1135.0 91.9)">12 ft</text><rect x="0.0" y="193.8" width="564.5" height="296.4" fill="#ffffff" stroke="#111111" stroke-width="6"/><text x="20.0" y="235.8" font-family="Arial, Helvetica, sans-serif" font-size="20" font-weight="700" fill="#111111">Bedroom</text><line x1="18.0" y1="466.2" x2="546.5" y2="466.2" stroke="#777777" stroke-width="2" stroke-dasharray="8 8"/><text x="282.2" y="460.2" text-anchor="middle" font-family="Arial, Helvetica, sans-serif" font-size="16" fill="#333333">12 ft</text><text x="550.5" y="342.0" text-anchor="end" font-family="Arial, Helvetica, sans-serif" font-size="16" fill="#333333" transform="rotate(-90 550.5 342.0)">12 ft</text><rect x="574.5" y="193.8" width="574.5" height="296.4" fill="#ffffff" stroke="#111111" stroke-width="6"/><text x="594.5" y="235.8" font-family="Arial, Helvetica, sans-serif" font-size="20" font-weight="700" fill="#111111">Bedroom</text><line x1="592.5" y1="466.2" x2="1131.0" y2="466.2" stroke="#777777" stroke-width="2" stroke-dasharray="8 8"/><text x="861.8" y="460.2" text-anchor="middle" font-family="Arial, Helvetica, sans-serif" font-size="16" fill="#333333">12 ft</text><text x="1135.0" y="342.0" text-anchor="end" font-family="Arial, Helvetica, sans-serif" font-size="16" fill="#333333" transform="rotate(-90 1135.0 342.0)">12 ft</text><rect x="0.0" y="500.2" width="564.5" height="265.8" fill="#ffffff" stroke="#111111" stroke-width="6"/><text x="20.0" y="542.2" font-family="Arial, Helvetica, sans-serif" font-size="20" font-weight="700" fill="#111111">Kitchen</text><line x1="18.0" y1="742.0" x2="546.5" y2="742.0" stroke="#777777" stroke-width="2" stroke-dasharray="8 8"/><text x="282.2" y="736.0" text-anchor="middle" font-family="Arial, Helvetica, sans-serif" font-size="16" fill="#333333">12 ft</text><text x="550.5" y="633.1" text-anchor="end" font-family="Arial, Helvetica, sans-serif" font-size="16" fill="#333333" transform="rotate(-90 550.5 633.1)">12 ft</text><rect x="574.5" y="500.2" width="574.5" height="265.8" fill="#ffffff" stroke="#111111" stroke-width="6"/><text x="594.5" y="542.2" font-family="Arial, Helvetica, sans-serif" font-size="20" font-weight="700" fill="#111111">Bathroom</text><line x1="592.5" y1="742.0" x2="1131.0" y2="742.0" stroke="#777777" stroke-width="2" stroke-dasharray="8 8"/><text x="861.8" y="736.0" text-anchor="middle" font-family="Arial, Helvetica, sans-serif" font-size="16" fill="#333333">12 ft</text><text x="1135.0" y="633.1" text-anchor="end" font-family="Arial, Helvetica, sans-serif" font-size="16" fill="#333333" transform="rotate(-90 1135.0 633.1)">12 ft</text><rect x="505.6" y="762.0" width="137.9" height="8" fill="#ffffff"/><path d="M 505.6 766.0 A 137.9 137.9 0 0 1 643.4 628.1" fill="none" stroke="#111111" stroke-width="3"/></g></g></svg>